<svg width="16" height="16" viewBox="0 0 16 16" fill="none" xmlns="http://www.w3.org/2000/svg">
<g clip-path="url(#clip0_5101_1296)">
<rect width="16" height="16" fill="white" fill-opacity="0.01"/>
<path fill-rule="evenodd" clip-rule="evenodd" d="M11.125 2.87512H13.75C14.0266 2.87512 14.25 3.09856 14.25 3.37512V13.7501C14.25 14.0267 14.0266 14.2501 13.75 14.2501H2.25C1.97344 14.2501 1.75 14.0267 1.75 13.7501V3.37512C1.75 3.09856 1.97344 2.87512 2.25 2.87512H4.875V1.87512C4.875 1.80637 4.93125 1.75012 5 1.75012H5.875C5.94375 1.75012 6 1.80637 6 1.87512V2.87512H10V1.87512C10 1.80637 10.0562 1.75012 10.125 1.75012H11C11.0688 1.75012 11.125 1.80637 11.125 1.87512V2.87512ZM2.875 13.1251H13.125V7.18762H2.875V13.1251Z" fill="#061178"/>
</g>
<defs>
<clipPath id="clip0_5101_1296">
<rect width="16" height="16" fill="white"/>
</clipPath>
</defs>
</svg>
