<svg width="16" height="16" viewBox="0 0 16 16" fill="none" xmlns="http://www.w3.org/2000/svg">
<g clip-path="url(#clip0_5101_1312)">
<rect width="16" height="16" fill="white" fill-opacity="0.01"/>
<path fill-rule="evenodd" clip-rule="evenodd" d="M12.125 2.50012H13.5625C13.7448 2.50012 13.9197 2.57255 14.0486 2.70149C14.1776 2.83042 14.25 3.00529 14.25 3.18762V5.50012C14.25 6.77668 13.3125 7.83762 12.0906 8.03137C11.85 9.847 10.3906 11.2782 8.5625 11.4767V13.1204H11.625C11.9016 13.1204 12.125 13.3439 12.125 13.6204V14.1251C12.125 14.1939 12.0688 14.2501 12 14.2501H4C3.93125 14.2501 3.875 14.1939 3.875 14.1251V13.6204C3.875 13.3439 4.09844 13.1204 4.375 13.1204H7.4375V11.4767C5.60938 11.2782 4.15 9.847 3.90937 8.03137C2.6875 7.83762 1.75 6.77668 1.75 5.50012V3.18762C1.75 3.00529 1.82243 2.83042 1.95136 2.70149C2.0803 2.57255 2.25516 2.50012 2.4375 2.50012H3.875V1.87512C3.875 1.80637 3.93125 1.75012 4 1.75012H12C12.0688 1.75012 12.125 1.80637 12.125 1.87512V2.50012ZM3.875 6.86887V3.62512H2.875V5.50012C2.87506 5.68435 2.91051 5.86568 2.97826 6.03465C3.13717 6.42916 3.46652 6.73785 3.875 6.86887ZM3.16315 6.36299C3.26249 6.49498 3.38404 6.60931 3.52221 6.70037C3.38476 6.60992 3.26308 6.49602 3.16315 6.36299ZM12.125 6.86887C12.7047 6.6845 13.125 6.14075 13.125 5.50012V3.62512H12.125V6.86887Z" fill="#061178"/>
</g>
<defs>
<clipPath id="clip0_5101_1312">
<rect width="16" height="16" fill="white"/>
</clipPath>
</defs>
</svg>
