<svg width="16" height="16" viewBox="0 0 16 16" fill="none" xmlns="http://www.w3.org/2000/svg">
<g clip-path="url(#clip0_5101_1304)">
<rect width="16" height="16" fill="white" fill-opacity="0.01"/>
<path fill-rule="evenodd" clip-rule="evenodd" d="M13.2828 3.35716C13.6434 3.70984 13.9318 4.12944 14.1317 4.59249C14.3391 5.07438 14.4451 5.58612 14.4436 6.11277C14.4436 6.60959 14.3421 7.12729 14.1407 7.65395C13.9736 8.09407 13.7304 8.5506 13.4216 9.01161C12.9322 9.74117 12.2594 10.5021 11.4239 11.2734C10.0379 12.552 8.66826 13.4337 8.61007 13.471L8.25648 13.6978C8.09983 13.7978 7.89842 13.7978 7.74177 13.6978L7.38818 13.471C7.32999 13.4352 5.9589 12.552 4.57437 11.2734C3.73889 10.5021 3.06602 9.74117 2.57667 9.01161C2.26784 8.5506 2.02614 8.09407 1.85755 7.65395C1.65614 7.12729 1.55469 6.60959 1.55469 6.11277C1.55469 5.58612 1.66062 5.07438 1.86799 4.59249C2.06743 4.12914 2.35585 3.70944 2.71691 3.35716C3.07945 3.00208 3.50167 2.72308 3.97014 2.52913C4.45502 2.32772 4.96825 2.22627 5.49789 2.22627C6.23341 2.22627 6.95104 2.42768 7.57467 2.80812C7.72386 2.89913 7.8656 2.99909 7.99987 3.108C8.13415 2.99909 8.27588 2.89913 8.42507 2.80812C9.0487 2.42768 9.76633 2.22627 10.5019 2.22627C11.0261 2.22506 11.5454 2.32801 12.0296 2.52913C12.4965 2.72232 12.922 3.00343 13.2828 3.35716ZM2.68856 6.11277C2.68856 9.11456 7.99987 12.5177 7.99987 12.5177C7.99987 12.5177 7.99991 12.5176 8 12.5176C7.97227 12.4998 2.6888 9.10666 2.6888 6.11276C2.6888 4.65041 3.85247 3.45448 5.32205 3.36545C3.85235 3.45436 2.68856 4.65035 2.68856 6.11277ZM10.3181 3.36593C9.3058 3.42995 8.43917 4.01908 7.99999 4.85781C8.00003 4.85789 8.00007 4.85796 8.00011 4.85804C8.43921 4.01924 9.30581 3.43003 10.3181 3.36593Z" fill="#061178"/>
</g>
<defs>
<clipPath id="clip0_5101_1304">
<rect width="16" height="16" fill="white"/>
</clipPath>
</defs>
</svg>
