<svg width="16" height="16" viewBox="0 0 16 16" fill="none" xmlns="http://www.w3.org/2000/svg">
<g clip-path="url(#clip0_5101_1320)">
<rect width="16" height="16" fill="white" fill-opacity="0.01"/>
<path fill-rule="evenodd" clip-rule="evenodd" d="M13.75 1.75012H2.25C1.97344 1.75012 1.75 1.97356 1.75 2.25012V13.7501C1.75 14.0267 1.97344 14.2501 2.25 14.2501H13.75C14.0266 14.2501 14.25 14.0267 14.25 13.7501V2.25012C14.25 1.97356 14.0266 1.75012 13.75 1.75012ZM13.125 13.1251H2.875V2.87512H13.125V13.1251ZM11.4639 7.43762H9.53578C9.51547 7.43762 9.49985 7.38137 9.49985 7.31262V6.56262C9.49985 6.49387 9.51547 6.43762 9.53578 6.43762H11.4639C11.4842 6.43762 11.4998 6.49387 11.4998 6.56262V7.31262C11.4998 7.38137 11.4842 7.43762 11.4639 7.43762ZM12.5123 9.68762H9.61078C9.54985 9.68762 9.49985 9.63137 9.49985 9.56262V8.81262C9.49985 8.74387 9.54985 8.68762 9.61078 8.68762H12.5123C12.5733 8.68762 12.6233 8.74387 12.6233 8.81262V9.56262C12.6233 9.63137 12.5733 9.68762 12.5123 9.68762ZM4.18578 10.5157H3.49985C3.42797 10.5157 3.37172 10.4564 3.37797 10.3845C3.39885 9.98639 3.51577 9.59926 3.71875 9.25616C3.92173 8.91305 4.20473 8.62417 4.5436 8.41418C4.26078 8.10168 4.08891 7.68918 4.08891 7.2345C4.08891 6.26731 4.8686 5.4845 5.82953 5.4845C6.79047 5.4845 7.57016 6.26731 7.57016 7.2345C7.5712 7.6707 7.40901 8.09152 7.11547 8.41418C7.7811 8.82668 8.23735 9.55168 8.2811 10.3845C8.28194 10.4014 8.27934 10.4184 8.27344 10.4343C8.26754 10.4501 8.25846 10.4647 8.24677 10.477C8.23508 10.4892 8.22101 10.499 8.20542 10.5057C8.18983 10.5123 8.17305 10.5158 8.1561 10.5157H7.47016C7.40453 10.5157 7.35141 10.4642 7.34672 10.3986C7.28735 9.6095 6.62797 8.9845 5.82797 8.9845C5.02797 8.9845 4.3686 9.6095 4.30922 10.3986C4.30453 10.4642 4.25141 10.5157 4.18578 10.5157Z" fill="#061178"/>
</g>
<defs>
<clipPath id="clip0_5101_1320">
<rect width="16" height="16" fill="white"/>
</clipPath>
</defs>
</svg>
